<svg width="32" height="32" viewBox="0 0 32 32" fill="none" xmlns="http://www.w3.org/2000/svg">
<path d="M16 29.3333C8.63619 29.3333 2.66666 23.3638 2.66666 16C2.66666 8.63616 8.63619 2.66663 16 2.66663C23.3638 2.66663 29.3333 8.63616 29.3333 16C29.3252 23.3604 23.3604 29.3252 16 29.3333ZM16 5.33329C10.109 5.33329 5.33332 10.1089 5.33332 16C5.33332 21.891 10.109 26.6666 16 26.6666C21.891 26.6666 26.6667 21.891 26.6667 16C26.66 10.1117 21.8883 5.33991 16 5.33329ZM21.3333 22.6666H10.6667V20H21.3333V22.6666ZM11.3333 16C10.2288 16 9.33332 15.1045 9.33332 14C9.33332 12.8954 10.2288 12 11.3333 12C12.4379 12 13.3333 12.8954 13.3333 14C13.3333 15.1045 12.4379 16 11.3333 16ZM20.6573 15.9813C19.5579 15.9813 18.6667 15.09 18.6667 13.9906C18.6667 12.8912 19.5579 12 20.6573 12C21.7567 12 22.648 12.8912 22.648 13.9906C22.6465 15.0894 21.7561 15.9798 20.6573 15.9813Z" fill="#E74040"/>
</svg>
